<svg xmlns="http://www.w3.org/2000/svg" width="466.658" height="122.315" viewBox="0 0 4861 1274" shape-rendering="geometricPrecision" text-rendering="geometricPrecision" image-rendering="optimizeQuality" fill-rule="evenodd" clip-rule="evenodd">
                    <defs>
                        <style>
                            .fil1 {
                                fill: #ED3237
                            }

                            .fil0 {
                                fill: white;
                                fill-rule: nonzero
                            }
                        </style>
                    </defs>
                    <g id="Layer_x0020_1"><g id="_2384694731888"><path class="fil0" d="M1395 1018V256h242c73 0 132 16 175 48s64 74 64 126c0 43-12 81-36 113-25 32-59 54-102 68v2c52 6 94 25 126 58 31 33 47 75 47 128 0 65-26 118-77 158-52 41-116 61-195 61h-244zm126-661v217h82c43 0 78-10 103-31s37-50 37-88c0-65-43-98-130-98h-92zm0 319v241h108c47 0 83-11 109-33 25-22 38-52 38-90 0-79-54-118-164-118h-91zm944 103h-371c1 51 17 89 47 117 29 27 70 41 122 41 58 0 111-18 160-52v99c-50 31-116 47-197 47-80 0-143-25-188-74-46-50-69-119-69-209 0-85 25-154 75-207s113-80 187-80c75 0 132 24 173 72 41 47 61 114 61 199v47zm-119-87c0-44-11-79-31-103-21-25-49-37-85-37s-66 13-91 39c-24 25-39 59-45 101h252zm168 309V887c47 35 97 52 153 52 74 0 112-22 112-66 0-12-4-23-10-31-6-9-15-17-26-23-10-7-23-13-38-18-15-6-31-12-49-19-23-8-43-18-60-28-18-10-33-21-45-33-12-13-21-27-27-43s-9-35-9-56c0-26 6-50 18-69 13-20 30-37 51-51 20-14 44-24 71-31 26-7 54-10 82-10 51 0 96 8 135 23v108c-38-27-82-40-132-40-15 0-29 2-42 5-12 3-23 8-32 13-9 6-16 13-21 21s-7 16-7 26c0 12 2 22 7 30s12 15 22 21c10 7 22 12 35 17 14 6 30 11 47 17 24 10 45 19 63 29 19 10 35 22 48 34 13 13 23 27 30 44 7 16 11 36 11 58 0 28-6 52-19 73-13 20-30 37-51 51-22 13-46 23-74 30-28 6-57 10-88 10-59 0-111-10-155-30zm595-63h-2v330h-123V474h123v95h2c42-72 104-108 185-108 69 0 123 24 162 73 38 48 58 113 58 195 0 91-22 164-66 218-43 55-103 82-178 82-70 0-123-30-161-91zm-3-215v67c0 40 13 74 38 101 25 28 57 42 96 42 46 0 82-18 108-54 26-35 39-85 39-149 0-53-12-95-36-125-25-31-58-46-99-46-44 0-79 16-106 47s-40 70-40 117zm623 295h-124V212h124v806zm544 0h-119v-85h-3c-37 65-92 98-165 98-53 0-95-15-126-44-30-29-45-67-45-115 0-103 59-163 178-180l161-23c0-77-37-116-110-116-65 0-124 22-176 67V512c58-34 124-51 199-51 137 0 206 68 206 203v354zm-119-268l-114 16c-35 5-62 14-80 26-18 13-27 35-27 66 0 23 8 42 25 57 16 15 38 22 66 22 37 0 69-13 93-40 25-26 37-59 37-99v-48zm707-276l-245 631c-52 113-123 169-215 169-26 0-48-2-65-7v-102c19 6 37 9 53 9 46 0 80-23 103-68l37-89-216-543h136l130 395c1 5 4 18 9 39h3c2-8 5-21 9-38l137-396h124z"></path><path class="fil1" d="M1185 509c-85 84-169 169-254 253-148 148-194 211-259 237-61 25-139 17-334 17 85-84 170-169 255-254 84-84 169-169 254-253L593 255c402 0 306-32 592 254zM592 255C307-31 402 1 0 1c286 285 190 254 592 254z"></path></g></g>
                </svg>